<?xml version="1.0" encoding="utf-8"?>
<!-- Generator: Adobe Illustrator 25.0.1, SVG Export Plug-In . SVG Version: 6.00 Build 0)  -->
<svg version="1.1" id="Layer_1" xmlns="http://www.w3.org/2000/svg" xmlns:xlink="http://www.w3.org/1999/xlink" x="0px" y="0px"
	 viewBox="0 0 1104.57 200.96" style="enable-background:new 0 0 1104.57 200.96;" xml:space="preserve">
<style type="text/css">
	.st0{fill:url(#SVGID_1_);}
	.st1{fill:url(#SVGID_2_);}
	.st2{fill:url(#SVGID_3_);}
	.st3{fill:url(#SVGID_4_);}
	.st4{fill:url(#SVGID_5_);}
	.st5{fill:#FFFFFF;}
	.st6{fill:url(#SVGID_6_);}
	.st7{fill:url(#SVGID_7_);}
	.st8{fill:url(#SVGID_8_);}
	.st9{fill:url(#SVGID_9_);}
	.st10{fill:url(#SVGID_10_);}
	.st11{fill:url(#SVGID_11_);}
	.st12{fill:url(#SVGID_12_);}
	.st13{fill:url(#SVGID_13_);}
	.st14{fill:url(#SVGID_14_);}
	.st15{fill:url(#SVGID_15_);}
	.st16{fill:url(#SVGID_16_);}
	.st17{fill:url(#SVGID_17_);}
	.st18{fill:url(#SVGID_18_);}
	.st19{fill:url(#SVGID_19_);}
	.st20{fill:url(#SVGID_20_);}
	.st21{fill:url(#SVGID_21_);}
	.st22{fill:url(#SVGID_22_);}
	.st23{fill:url(#SVGID_23_);}
	.st24{fill:url(#SVGID_24_);}
	.st25{fill:url(#SVGID_25_);}
	.st26{fill:url(#SVGID_26_);}
	.st27{fill:url(#SVGID_27_);}
	.st28{fill:url(#SVGID_28_);}
	.st29{fill:url(#SVGID_29_);}
	.st30{fill:url(#SVGID_30_);}
	.st31{fill:url(#SVGID_31_);}
	.st32{fill:url(#SVGID_32_);}
	.st33{fill:url(#SVGID_33_);}
	.st34{fill:url(#SVGID_34_);}
	.st35{fill:url(#SVGID_35_);}
	.st36{fill:url(#SVGID_36_);}
	.st37{fill:url(#SVGID_37_);}
	.st38{fill:url(#SVGID_38_);}
	.st39{fill:url(#SVGID_39_);}
	.st40{fill:url(#SVGID_40_);}
	.st41{fill:url(#SVGID_41_);}
	.st42{fill:url(#SVGID_42_);}
	.st43{fill:url(#SVGID_43_);}
	.st44{fill:url(#SVGID_44_);}
	.st45{fill:url(#SVGID_45_);}
	.st46{fill:url(#SVGID_46_);}
	.st47{fill:url(#SVGID_47_);}
	.st48{fill:url(#SVGID_48_);}
	.st49{fill:url(#SVGID_49_);}
	.st50{fill:url(#SVGID_50_);}
	.st51{fill:url(#SVGID_51_);}
	.st52{fill:url(#SVGID_52_);}
	.st53{fill:url(#SVGID_53_);}
	.st54{fill:url(#SVGID_54_);}
	.st55{fill:url(#SVGID_55_);}
	.st56{fill:url(#SVGID_56_);}
	.st57{fill:url(#SVGID_57_);}
	.st58{fill:url(#SVGID_58_);}
	.st59{fill:url(#SVGID_59_);}
	.st60{fill:url(#SVGID_60_);}
	.st61{fill:url(#SVGID_61_);}
	.st62{fill:url(#SVGID_62_);}
	.st63{fill:url(#SVGID_63_);}
	.st64{fill:url(#SVGID_64_);}
	.st65{fill:url(#SVGID_65_);}
	.st66{fill:url(#SVGID_66_);}
	.st67{fill:url(#SVGID_67_);}
	.st68{fill:url(#SVGID_68_);}
	.st69{fill:url(#SVGID_69_);}
	.st70{fill:url(#SVGID_70_);}
	.st71{fill:url(#SVGID_71_);}
	.st72{fill:url(#SVGID_72_);}
	.st73{fill:url(#SVGID_73_);}
	.st74{fill:url(#SVGID_74_);}
	.st75{fill:url(#SVGID_75_);}
	.st76{fill:url(#SVGID_76_);}
	.st77{fill:url(#SVGID_77_);}
	.st78{fill:url(#SVGID_78_);}
	.st79{fill:url(#SVGID_79_);}
	.st80{fill:url(#SVGID_80_);}
	.st81{fill:url(#SVGID_81_);}
	.st82{fill:url(#SVGID_82_);}
	.st83{fill:url(#SVGID_83_);}
	.st84{fill:url(#SVGID_84_);}
	.st85{fill:url(#SVGID_85_);}
	.st86{fill:url(#SVGID_86_);}
	.st87{fill:url(#SVGID_87_);}
	.st88{fill:url(#SVGID_88_);}
	.st89{fill:url(#SVGID_89_);}
	.st90{fill:url(#SVGID_90_);}
	.st91{fill:url(#SVGID_91_);}
	.st92{fill:url(#SVGID_92_);}
	.st93{fill:url(#SVGID_93_);}
	.st94{fill:url(#SVGID_94_);}
	.st95{fill:url(#SVGID_95_);}
	.st96{fill:url(#SVGID_96_);}
	.st97{fill:url(#SVGID_97_);}
	.st98{fill:url(#SVGID_98_);}
	.st99{fill:url(#SVGID_99_);}
	.st100{fill:url(#SVGID_100_);}
	.st101{fill:url(#SVGID_101_);}
	.st102{fill:url(#SVGID_102_);}
	.st103{fill:url(#SVGID_103_);}
	.st104{fill:url(#SVGID_104_);}
	.st105{fill:url(#SVGID_105_);}
	.st106{fill:url(#SVGID_106_);}
	.st107{fill:url(#SVGID_107_);}
	.st108{fill:url(#SVGID_108_);}
	.st109{fill:url(#SVGID_109_);}
	.st110{fill:url(#SVGID_110_);}
	.st111{fill:url(#SVGID_111_);}
	.st112{fill:url(#SVGID_112_);}
	.st113{fill:url(#SVGID_113_);}
	.st114{fill:url(#SVGID_114_);}
	.st115{fill:url(#SVGID_115_);}
	.st116{fill:url(#SVGID_116_);}
	.st117{fill:url(#SVGID_117_);}
	.st118{fill:url(#SVGID_118_);}
	.st119{fill:url(#SVGID_119_);}
	.st120{fill:url(#SVGID_120_);}
	.st121{fill:url(#SVGID_121_);}
	.st122{fill:url(#SVGID_122_);}
	.st123{fill:url(#SVGID_123_);}
	.st124{fill:url(#SVGID_124_);}
	.st125{fill:url(#SVGID_125_);}
	.st126{fill:url(#SVGID_126_);}
	.st127{fill:url(#SVGID_127_);}
	.st128{fill:url(#SVGID_128_);}
	.st129{fill:url(#SVGID_129_);}
	.st130{fill:url(#SVGID_130_);}
	.st131{fill:url(#SVGID_131_);}
	.st132{fill:url(#SVGID_132_);}
	.st133{fill:url(#SVGID_133_);}
	.st134{fill:url(#SVGID_134_);}
	.st135{fill:url(#SVGID_135_);}
	.st136{fill:url(#SVGID_136_);}
	.st137{fill:url(#SVGID_137_);}
	.st138{fill:url(#SVGID_138_);}
	.st139{fill:url(#SVGID_139_);}
	.st140{fill:url(#SVGID_140_);}
	.st141{fill:url(#SVGID_141_);}
	.st142{fill:url(#SVGID_142_);}
	.st143{fill:url(#SVGID_143_);}
	.st144{fill:url(#SVGID_144_);}
	.st145{fill:url(#SVGID_145_);}
	.st146{fill:url(#SVGID_146_);}
	.st147{fill:url(#SVGID_147_);}
	.st148{fill:url(#SVGID_148_);}
	.st149{fill:url(#SVGID_149_);}
	.st150{fill:url(#SVGID_150_);}
	.st151{fill:url(#SVGID_151_);}
	.st152{fill:url(#SVGID_152_);}
	.st153{fill:url(#SVGID_153_);}
	.st154{fill:url(#SVGID_154_);}
	.st155{fill:url(#SVGID_155_);}
	.st156{fill:url(#SVGID_156_);}
	.st157{fill:url(#SVGID_157_);}
	.st158{fill:url(#SVGID_158_);}
	.st159{fill:url(#SVGID_159_);}
	.st160{fill:url(#SVGID_160_);}
	.st161{fill:url(#SVGID_161_);}
	.st162{fill:url(#SVGID_162_);}
	.st163{fill:url(#SVGID_163_);}
	.st164{fill:url(#SVGID_164_);}
</style>
<g>
	<linearGradient id="SVGID_1_" gradientUnits="userSpaceOnUse" x1="98.6389" y1="23.3228" x2="98.6389" y2="187.7168">
		<stop  offset="0" style="stop-color:#2EE0C7"/>
		<stop  offset="1" style="stop-color:#87EDB0"/>
	</linearGradient>
	<path class="st0" d="M80.93,23.32h35.03c3.46,0,6.57,2.1,7.86,5.32l59.1,147.46c2.23,5.56-1.87,11.61-7.86,11.61H146
		c-3.5,0-6.64-2.15-7.9-5.42l-3.97-10.31c-1.26-3.27-4.4-5.42-7.9-5.42H68.21c-3.5,0-6.64,2.15-7.9,5.42l-3.97,10.31
		c-1.26,3.27-4.4,5.42-7.9,5.42H22.22c-5.98,0-10.08-6.04-7.86-11.6L73.06,28.66C74.34,25.44,77.46,23.32,80.93,23.32z M113,117.56
		l-7.89-20.23c-2.8-7.19-12.97-7.19-15.77,0l-7.89,20.23c-2.16,5.55,1.93,11.54,7.89,11.54h15.78
		C111.07,129.1,115.16,123.11,113,117.56z"/>
	<linearGradient id="SVGID_2_" gradientUnits="userSpaceOnUse" x1="282.2159" y1="24.4243" x2="282.2159" y2="187.7168">
		<stop  offset="0" style="stop-color:#2EE0C7"/>
		<stop  offset="1" style="stop-color:#87EDB0"/>
	</linearGradient>
	<path class="st1" d="M212.56,24.42h36.18c2.69,0,5.22,1.28,6.81,3.44l45.87,62.22c4.85,6.58,15.28,3.15,15.28-5.02V32.89
		c0-4.68,3.79-8.47,8.47-8.47h26.7c4.68,0,8.47,3.79,8.47,8.47v146.36c0,4.68-3.79,8.47-8.47,8.47h-29.35
		c-2.69,0-5.21-1.27-6.81-3.43L263,112.96c-4.85-6.57-15.27-3.13-15.27,5.03v61.26c0,4.68-3.79,8.47-8.47,8.47h-26.7
		c-4.68,0-8.47-3.79-8.47-8.47V32.89C204.1,28.21,207.89,24.42,212.56,24.42z"/>
	<linearGradient id="SVGID_3_" gradientUnits="userSpaceOnUse" x1="462.3613" y1="24.4243" x2="462.3613" y2="187.7168">
		<stop  offset="0" style="stop-color:#2EE0C7"/>
		<stop  offset="1" style="stop-color:#87EDB0"/>
	</linearGradient>
	<path class="st2" d="M438.26,131.51L382.44,37.2c-3.34-5.64,0.73-12.78,7.28-12.78h29.19c3.02,0,5.82,1.61,7.33,4.23l29.67,51.39
		c3.26,5.64,11.4,5.64,14.66,0l29.67-51.39c1.51-2.62,4.31-4.23,7.33-4.23H535c6.56,0,10.62,7.13,7.29,12.78l-56.05,94.75
		c-0.77,1.31-1.18,2.79-1.18,4.31v42.99c0,4.68-3.79,8.47-8.47,8.47h-28.69c-4.68,0-8.47-3.79-8.47-8.47v-43.43
		C439.44,134.31,439.03,132.82,438.26,131.51z"/>
	<linearGradient id="SVGID_4_" gradientUnits="userSpaceOnUse" x1="660.9029" y1="24.4243" x2="660.9029" y2="187.7168">
		<stop  offset="0" style="stop-color:#2EE0C7"/>
		<stop  offset="1" style="stop-color:#87EDB0"/>
	</linearGradient>
	<path class="st3" d="M573.07,24.42h45.39c3.52,0,6.68,2.18,7.92,5.48L653,100.62c2.75,7.3,13.08,7.31,15.84,0.02l26.79-70.75
		c1.25-3.29,4.4-5.47,7.92-5.47h45.19c4.68,0,8.47,3.79,8.47,8.47v146.36c0,4.68-3.79,8.47-8.47,8.47h-27.58
		c-4.68,0-8.47-3.79-8.47-8.47v-40.86c0-9.38-12.99-11.8-16.36-3.05L678.2,182.3c-1.26,3.26-4.4,5.42-7.9,5.42h-22.53
		c-3.5,0-6.65-2.16-7.9-5.43l-17.69-46.05c-3.37-8.76-16.37-6.35-16.37,3.04v39.98c0,4.68-3.79,8.47-8.47,8.47h-24.28
		c-4.68,0-8.47-3.79-8.47-8.47V32.89C564.6,28.21,568.39,24.42,573.07,24.42z"/>
	<linearGradient id="SVGID_5_" gradientUnits="userSpaceOnUse" x1="862.8459" y1="23.3228" x2="862.8459" y2="187.7168">
		<stop  offset="0" style="stop-color:#2EE0C7"/>
		<stop  offset="1" style="stop-color:#87EDB0"/>
	</linearGradient>
	<path class="st4" d="M845.13,23.32h35.03c3.46,0,6.57,2.1,7.86,5.32l59.1,147.46c2.23,5.56-1.87,11.61-7.86,11.61h-29.06
		c-3.5,0-6.64-2.15-7.9-5.42l-3.97-10.31c-1.26-3.27-4.4-5.42-7.9-5.42h-58.02c-3.5,0-6.64,2.15-7.9,5.42l-3.97,10.31
		c-1.26,3.27-4.4,5.42-7.9,5.42h-26.22c-5.98,0-10.08-6.04-7.86-11.6l58.71-147.46C838.55,25.44,841.67,23.32,845.13,23.32z
		 M877.2,117.56l-7.89-20.23c-2.8-7.19-12.97-7.19-15.77,0l-7.89,20.23c-2.16,5.55,1.93,11.54,7.89,11.54h15.78
		C875.27,129.1,879.37,123.11,877.2,117.56z"/>
	<linearGradient id="SVGID_6_" gradientUnits="userSpaceOnUse" x1="1029.5646" y1="24.4243" x2="1029.5646" y2="187.7168">
		<stop  offset="0" style="stop-color:#2EE0C7"/>
		<stop  offset="1" style="stop-color:#87EDB0"/>
	</linearGradient>
	<path class="st6" d="M976.77,24.42h28.68c4.68,0,8.47,3.79,8.47,8.47v106.92c0,4.68,3.79,8.47,8.47,8.47h59.98
		c4.68,0,8.47,3.79,8.47,8.47v22.52c0,4.68-3.79,8.47-8.47,8.47H976.77c-4.68,0-8.47-3.79-8.47-8.47V32.89
		C968.3,28.21,972.09,24.42,976.77,24.42z"/>
</g>
</svg>
